<?xml version="1.0" encoding="UTF-8"?>
<svg id="Layer_1" data-name="Layer 1" xmlns="http://www.w3.org/2000/svg" viewBox="0 0 387.69 56.6">
  <defs>
    <style>
      .cls-1 {
        fill: #231f20;
        stroke-width: 0px;
      }
    </style>
  </defs>
  <path class="cls-1" d="M41.77,6.9l-9.43,23.26c-2.29,5.63-4.04,9.47-5.23,11.49s-2.75,3.79-4.64,5.28c-2.78,2.14-5.96,3.22-9.54,3.22-3.84,0-6.95-1.2-9.34-3.61s-3.59-5.55-3.59-9.42c0-5.11,1.88-9.58,5.64-13.41,2.02-2.05,4.54-3.71,7.58-4.96s6.03-1.88,9-1.88c1.42,0,2.57.32,3.45.97.88.65,1.32,1.49,1.32,2.52,0,1.13-.47,2.03-1.42,2.7-.53.38-1.58.65-3.16.82-3.64.33-6.55,1.15-8.75,2.48-1.85,1.13-3.32,2.58-4.39,4.36-1.07,1.78-1.61,3.66-1.61,5.64s.54,3.64,1.61,4.83c1.07,1.18,2.53,1.77,4.36,1.77,2.18,0,4.09-.95,5.73-2.84,1.64-1.89,3.42-5.21,5.34-9.95l9.43-23.26h-5.32c-2.51,0-3.76-.89-3.76-2.67,0-1.2.44-2.14,1.34-2.82.89-.68,2.13-1.02,3.71-1.02h18.62l1.91.44c.76.42,1.15,1.16,1.15,2.24,0,1.2-.45,2.14-1.34,2.82s-2.13,1.02-3.71,1.02h-4.96Z"/>
  <path class="cls-1" d="M57.72,17.91c1.91-1.04,3.48-1.55,4.72-1.55,1.75,0,3.18.49,4.29,1.46,1.12.97,1.68,2.21,1.68,3.72,0,.91-.22,1.9-.65,2.97l-2.86,7.14h3.14c2.29,0,3.44.81,3.44,2.43,0,1.11-.4,1.97-1.21,2.59-.81.62-1.94.93-3.39.93h-5.48c-1.16,0-2.14-.33-2.93-1-.79-.66-1.19-1.48-1.19-2.44,0-.65.21-1.49.63-2.51l2.51-6.16c.31-.78.46-1.37.46-1.77,0-1.04-.69-1.55-2.07-1.55-1.85,0-3.42,1.58-4.69,4.74l-3.05,7.5c-.96,2.38-2.39,3.57-4.28,3.57-.75,0-1.38-.24-1.91-.71s-.79-1.04-.79-1.72c0-.51.14-1.11.41-1.8l.3-.74L56.63,3.76c1.04-2.51,2.45-3.76,4.25-3.76.75,0,1.39.25,1.92.75.54.5.8,1.1.8,1.81,0,.58-.24,1.45-.71,2.59l-5.18,12.76Z"/>
  <path class="cls-1" d="M79.04,29.61c0,1.36,1.03,2.04,3.08,2.04h8.1c2.29,0,3.44.81,3.44,2.43,0,1.11-.4,1.97-1.21,2.59-.81.62-1.94.93-3.39.93h-7.72c-2.87,0-5.06-.71-6.56-2.13-1.5-1.42-2.25-3.49-2.25-6.22,0-3.51,1.19-6.53,3.56-9.08s5.19-3.82,8.47-3.82c2.38,0,4.29.62,5.74,1.87,1.45,1.25,2.17,2.89,2.17,4.92,0,2.45-1,4.27-3,5.45-1.11.67-2.76,1.01-4.96,1.01h-5.45ZM80.35,24.65h3c1.94,0,2.89-.43,2.84-1.28-.05-.96-.68-1.45-1.88-1.45-1.67,0-2.99.91-3.95,2.73Z"/>
  <path class="cls-1" d="M156.88,31.08h4.42c2.53,0,3.79.86,3.79,2.59,0,1.24-.44,2.2-1.32,2.89-.88.69-2.12,1.04-3.72,1.04h-5.18c-1.89,0-3.35-.4-4.38-1.19-1.03-.79-1.54-1.92-1.54-3.39,0-.94.38-2.33,1.15-4.14l7.01-16.41-5.26,5.64c-1.25,1.36-2.44,2.04-3.57,2.04-1.47,0-2.43-1.01-2.86-3.03l-.76-3.38-6.65,16.41c-2.29,5.63-4.04,9.47-5.23,11.49s-2.75,3.79-4.66,5.28c-2.76,2.14-5.93,3.22-9.52,3.22-3.82,0-6.92-1.2-9.3-3.61s-3.57-5.55-3.57-9.42c0-5.07,1.87-9.53,5.62-13.39,2.02-2.05,4.54-3.71,7.55-4.98,3.02-1.26,5.99-1.9,8.92-1.9,1.49,0,2.68.32,3.57.95s1.34,1.48,1.34,2.54c0,1.11-.47,2.01-1.42,2.7-.55.4-1.6.67-3.16.82-3.62.33-6.53,1.15-8.75,2.48-1.84,1.11-3.29,2.55-4.38,4.34-1.08,1.78-1.62,3.64-1.62,5.59,0,2.07.53,3.7,1.58,4.89,1.05,1.19,2.5,1.79,4.33,1.79,2.2,0,4.11-.94,5.74-2.82,1.63-1.88,3.41-5.2,5.36-9.97l10.82-26.64c.94-2.35,2.22-3.52,3.82-3.52,1.02,0,1.82.33,2.41.98.59.65,1.1,1.8,1.54,3.44l1.66,6.27,8.18-8.04c1.8-1.76,3.48-2.65,5.04-2.65,1.09,0,2.01.33,2.77,1,.75.66,1.13,1.47,1.13,2.41,0,.6-.15,1.25-.44,1.96l-.63,1.53-9.82,24.18Z"/>
  <path class="cls-1" d="M186.71,31.66h3c2.29,0,3.44.8,3.44,2.4,0,1.11-.41,1.98-1.23,2.6-.82.63-1.95.94-3.38.94h-3.49c-1.56,0-2.63-.61-3.19-1.83-1.36,1.22-2.68,1.83-3.95,1.83h-3.11c-2,0-3.61-.71-4.84-2.14s-1.84-3.29-1.84-5.6c0-3.49,1.2-6.61,3.61-9.37,2.41-2.75,5.13-4.13,8.17-4.13,2.33,0,4.03.81,5.1,2.43.91-1.36,2.1-2.04,3.57-2.04.8,0,1.47.25,2,.76.54.51.8,1.14.8,1.88,0,.51-.15,1.12-.44,1.83l-.3.74-3.93,9.71ZM176.82,31.79h.68c1.49,0,2.48-.61,2.97-1.83l1.91-4.72c.25-.62.38-1.14.38-1.55,0-.49-.24-.92-.72-1.28-.48-.36-1.06-.54-1.73-.54-1.33,0-2.62.77-3.87,2.32-1.25,1.55-1.88,3.15-1.88,4.8,0,1.87.75,2.81,2.26,2.81Z"/>
  <path class="cls-1" d="M201,22.71l-.93,2.29c-.84,2.04-1.93,3.05-3.27,3.05-.82,0-1.5-.25-2.04-.74-.55-.49-.82-1.1-.82-1.83,0-.42.2-1.13.6-2.13l3.08-7.61c.75-1.84,1.8-2.75,3.16-2.75s2.17.64,2.48,1.91l.22.85c.11.44.27.71.49.82s.75.16,1.61.16h6.38c2.38,0,3.57.84,3.57,2.51,0,2.31-1.51,3.46-4.53,3.46l-.3.27c-2.89,2.76-4.33,4.9-4.33,6.41s.83,2.26,2.51,2.26h3.44c2.31,0,3.46.8,3.46,2.4,0,1.13-.41,2-1.21,2.62-.81.62-1.94.93-3.39.93h-5.34c-1.82,0-3.3-.63-4.46-1.88s-1.73-2.88-1.73-4.88c0-1.27.31-2.51.93-3.71.62-1.2,1.71-2.67,3.27-4.42h-2.84Z"/>
  <path class="cls-1" d="M233.61,26.07l4.23,6.63c.53.82.79,1.49.79,2.02,0,.84-.35,1.59-1.05,2.26-.7.67-1.49,1.01-2.36,1.01-.76,0-1.43-.41-1.99-1.23l-.33-.49-6.33-9.46-3.05,7.55c-.98,2.42-2.42,3.63-4.31,3.63-.78,0-1.44-.24-1.98-.72-.54-.48-.8-1.07-.8-1.76,0-.53.15-1.14.44-1.83l.3-.74,11.67-28.76.3-.74c.84-2.04,2.17-3.05,4.01-3.05.76,0,1.42.25,1.96.76s.82,1.12.82,1.83c0,.55-.15,1.17-.44,1.88l-.3.74-6.95,17.12,6.13-4.55c1.27-.94,2.36-1.42,3.27-1.42.76,0,1.4.25,1.91.74.51.49.76,1.1.76,1.83,0,1.22-.67,2.33-2.02,3.33l-.63.46-4.06,2.97Z"/>
  <path class="cls-1" d="M247.54,29.61c0,1.36,1.03,2.04,3.08,2.04h8.1c2.29,0,3.44.81,3.44,2.43,0,1.11-.4,1.97-1.21,2.59-.81.62-1.94.93-3.39.93h-7.72c-2.87,0-5.06-.71-6.56-2.13-1.5-1.42-2.25-3.49-2.25-6.22,0-3.51,1.19-6.53,3.56-9.08s5.19-3.82,8.47-3.82c2.38,0,4.29.62,5.74,1.87,1.45,1.25,2.17,2.89,2.17,4.92,0,2.45-1,4.27-3,5.45-1.11.67-2.76,1.01-4.96,1.01h-5.45ZM248.85,24.65h3c1.94,0,2.89-.43,2.83-1.28-.05-.96-.68-1.45-1.88-1.45-1.67,0-2.99.91-3.95,2.73Z"/>
  <path class="cls-1" d="M276.83,16.74h.85c2.31,0,3.46.81,3.46,2.43,0,1.11-.41,1.97-1.23,2.59-.82.62-1.95.93-3.38.93h-1.99l-3.65,8.97h3.05c2.31,0,3.46.81,3.46,2.43,0,1.11-.41,1.97-1.21,2.59-.81.62-1.94.93-3.39.93h-4.88c-1.38,0-2.48-.32-3.29-.95s-1.21-1.5-1.21-2.59c0-.67.16-1.42.49-2.24l.52-1.2,3.22-7.93h-.41c-2.04,0-3.05-.79-3.05-2.37,0-1.13.4-2,1.21-2.63.81-.63,1.94-.94,3.39-.94h1.25l1.45-3.57.3-.74c.85-2.02,2.2-3.03,4.04-3.03.75,0,1.39.25,1.92.75.54.5.8,1.1.8,1.81s-.24,1.56-.71,2.62l-1.01,2.15Z"/>
  <path class="cls-1" d="M285.9,35.47l-7.12,17.5c-.98,2.42-2.42,3.63-4.31,3.63-.73,0-1.35-.24-1.87-.72-.52-.48-.78-1.06-.78-1.73,0-.56.23-1.42.68-2.56l13.14-32.39c.67-1.64,1.84-2.45,3.49-2.45,1.15,0,2.05.55,2.73,1.64,1.27-1.34,2.83-2.02,4.66-2.02s3.45.72,4.62,2.17c1.17,1.45,1.76,3.35,1.76,5.71,0,4.47-1.39,8.12-4.17,10.93-.91.93-1.84,1.56-2.81,1.91-.96.35-2.31.52-4.04.52-1.85,0-3.13-.13-3.83-.38-.7-.25-1.42-.84-2.17-1.74ZM288.14,29.91c.45.8.89,1.32,1.3,1.55.41.24,1.06.35,1.95.35,1.29,0,2.3-.48,3.03-1.44,1.47-1.94,2.21-3.94,2.21-6,0-1.76-.84-2.65-2.51-2.65-1.84,0-3.15,1.06-3.95,3.19-.09.24-.16.44-.22.6l-1.8,4.39Z"/>
  <path class="cls-1" d="M311.67,31.66h2.86c2.31,0,3.46.81,3.46,2.43,0,1.11-.4,1.97-1.21,2.59-.81.62-1.94.93-3.39.93h-4.91c-1.34,0-2.41-.32-3.19-.95-.78-.64-1.17-1.49-1.17-2.56,0-.56.26-1.5.79-2.81l11.01-27.1.3-.74c.83-2.04,2.17-3.05,4.01-3.05.76,0,1.41.25,1.95.76s.8,1.12.8,1.83c0,.55-.14,1.16-.41,1.85l-.3.74-10.61,26.09Z"/>
  <path class="cls-1" d="M337.82,31.66h3c2.29,0,3.44.8,3.44,2.4,0,1.11-.41,1.98-1.23,2.6-.82.63-1.95.94-3.38.94h-3.49c-1.56,0-2.63-.61-3.19-1.83-1.36,1.22-2.68,1.83-3.95,1.83h-3.11c-2,0-3.61-.71-4.84-2.14s-1.84-3.29-1.84-5.6c0-3.49,1.2-6.61,3.61-9.37,2.41-2.75,5.13-4.13,8.17-4.13,2.33,0,4.03.81,5.1,2.43.91-1.36,2.1-2.04,3.57-2.04.8,0,1.47.25,2,.76.54.51.8,1.14.8,1.88,0,.51-.15,1.12-.44,1.83l-.3.74-3.93,9.71ZM327.92,31.79h.68c1.49,0,2.48-.61,2.97-1.83l1.91-4.72c.25-.62.38-1.14.38-1.55,0-.49-.24-.92-.72-1.28-.48-.36-1.06-.54-1.73-.54-1.33,0-2.62.77-3.87,2.32-1.25,1.55-1.88,3.15-1.88,4.8,0,1.87.75,2.81,2.26,2.81Z"/>
  <path class="cls-1" d="M360.91,37.6h-7.91c-2.27,0-4.12-.8-5.55-2.4-1.43-1.6-2.14-3.67-2.14-6.22,0-3.4,1.17-6.35,3.52-8.86s5.1-3.76,8.26-3.76c2.14,0,3.89.6,5.23,1.8,1.35,1.2,2.02,2.76,2.02,4.69,0,1.35-.34,2.45-1.01,3.31-.67.86-1.54,1.3-2.59,1.3-1.67,0-2.51-.78-2.51-2.34v-.6c.02-.2.03-.39.03-.57,0-1.27-.63-1.91-1.88-1.91-1.18,0-2.26.63-3.23,1.88-.97,1.25-1.46,2.65-1.46,4.2,0,1.29.39,2.2,1.19,2.74s2.13.8,4.02.8h5.15c2.31,0,3.46.81,3.46,2.43,0,1.09-.41,1.95-1.24,2.58-.83.63-1.95.94-3.37.94Z"/>
  <path class="cls-1" d="M373.07,29.61c0,1.36,1.03,2.04,3.08,2.04h8.1c2.29,0,3.44.81,3.44,2.43,0,1.11-.4,1.97-1.21,2.59-.81.62-1.94.93-3.39.93h-7.72c-2.87,0-5.06-.71-6.56-2.13-1.5-1.42-2.25-3.49-2.25-6.22,0-3.51,1.19-6.53,3.56-9.08s5.19-3.82,8.47-3.82c2.38,0,4.29.62,5.74,1.87,1.45,1.25,2.17,2.89,2.17,4.92,0,2.45-1,4.27-3,5.45-1.11.67-2.76,1.01-4.96,1.01h-5.45ZM374.38,24.65h3c1.94,0,2.89-.43,2.83-1.28-.05-.96-.68-1.45-1.88-1.45-1.67,0-2.99.91-3.95,2.73Z"/>
</svg>